<svg width="41" height="37" viewBox="0 0 41 37" fill="none" xmlns="http://www.w3.org/2000/svg">
<path d="M39.6039 13.3914C39.7355 13.472 39.8936 13.4974 40.0438 13.4622C40.194 13.4269 40.3242 13.3338 40.4062 13.2031L40.4109 13.1953C40.4693 13.1015 40.5002 12.9933 40.5 12.8828V10.4008C40.5001 10.2949 40.4714 10.1911 40.4171 10.1003C40.3627 10.0095 40.2847 9.9351 40.1914 9.88516L25.1023 0.675781C25.0104 0.619418 24.9047 0.589586 24.7969 0.589586C24.6891 0.589586 24.5833 0.619418 24.4914 0.675781L9.41328 9.88047C9.31859 9.93033 9.2394 10.0052 9.1843 10.0969C9.1292 10.1887 9.10031 10.2938 9.10078 10.4008V12.9008C9.10078 13.0562 9.16251 13.2052 9.2724 13.3151C9.38228 13.425 9.53132 13.4867 9.68672 13.4867C9.81599 13.487 9.94166 13.4441 10.0438 13.3648L10.5852 13.0344V14.0797L0.816406 20.0352C0.721833 20.0852 0.642728 20.1601 0.587649 20.2518C0.532569 20.3435 0.503611 20.4485 0.503906 20.5555V23.0383C0.504076 23.1456 0.533811 23.2507 0.589844 23.3422L0.594531 23.3508C0.595545 23.353 0.596859 23.3551 0.598438 23.357L0.619531 23.3867C0.705834 23.5068 0.834429 23.5896 0.979401 23.6186C1.12437 23.6476 1.27495 23.6206 1.40078 23.543L1.93828 23.2148V35.8281H1.08594C0.930537 35.8281 0.781502 35.8899 0.671617 35.9997C0.561733 36.1096 0.5 36.2587 0.5 36.4141C0.5 36.5695 0.561733 36.7185 0.671617 36.8284C0.781502 36.9383 0.930537 37 1.08594 37H39.9141C40.0695 37 40.2185 36.9383 40.3284 36.8284C40.4383 36.7185 40.5 36.5695 40.5 36.4141C40.5 36.2587 40.4383 36.1096 40.3284 35.9997C40.2185 35.8899 40.0695 35.8281 39.9141 35.8281H39.0938V13.0797L39.6039 13.3914ZM10.5781 35.8281H6.20312V24.1875H10.5781V35.8281ZM10.5781 23.0156H5.61719C5.46179 23.0156 5.31275 23.0774 5.20287 23.1872C5.09298 23.2971 5.03125 23.4462 5.03125 23.6016V35.8281H3.10547V22.5016L10.5781 17.9375V23.0156ZM10.5781 16.568L2.21406 21.6727L1.67188 22.0039V20.8859L10.5781 15.45V16.568ZM37.9219 35.8281H11.75V17.0305C11.7746 16.9352 11.7746 16.8352 11.75 16.7398V12.3164L24.7969 4.35391L37.9219 12.3641V35.8281ZM38.9227 11.6023C38.8571 11.5362 38.7768 11.4867 38.6883 11.4578L25.1023 3.16719C25.0102 3.1115 24.9046 3.08206 24.7969 3.08206C24.6892 3.08206 24.5836 3.1115 24.4914 3.16719L10.8125 11.518L10.2656 11.85V10.7305L24.7969 1.86172L39.3281 10.7305V11.85L38.9227 11.6023ZM15.0312 11.9609C15.0312 12.1163 15.093 12.2654 15.2029 12.3753C15.3128 12.4851 15.4618 12.5469 15.6172 12.5469H16.4148V16.0625H15.6172C15.4618 16.0625 15.3128 16.1242 15.2029 16.2341C15.093 16.344 15.0312 16.493 15.0312 16.6484V18.6016C15.0312 18.757 15.093 18.906 15.2029 19.0159C15.3128 19.1258 15.4618 19.1875 15.6172 19.1875H34.0547C34.2101 19.1875 34.3591 19.1258 34.469 19.0159C34.5789 18.906 34.6406 18.757 34.6406 18.6016V16.6484C34.6406 16.493 34.5789 16.344 34.469 16.2341C34.3591 16.1242 34.2101 16.0625 34.0547 16.0625H33.3352V12.5469H34.0547C34.2101 12.5469 34.3591 12.4851 34.469 12.3753C34.5789 12.2654 34.6406 12.1163 34.6406 11.9609C34.6406 11.8055 34.5789 11.6565 34.469 11.5466C34.3591 11.4367 34.2101 11.375 34.0547 11.375H15.6172C15.4618 11.375 15.3128 11.4367 15.2029 11.5466C15.093 11.6565 15.0312 11.8055 15.0312 11.9609ZM33.4688 17.2344V18.0156H16.2031V17.2344H33.4688ZM30.1875 12.5469H32.1656V16.0625H30.1875V12.5469ZM27.0383 12.5469H29.0156V16.0625H27.0359L27.0383 12.5469ZM23.8883 12.5469H25.8664V16.0625H23.8859L23.8883 12.5469ZM20.7344 12.5469H22.7117V16.0625H20.7344V12.5469ZM17.5844 12.5469H19.5625V16.0625H17.5867L17.5844 12.5469ZM22.6484 28.0937H22.0625V20.8672C22.0625 20.7118 22.0008 20.5628 21.8909 20.4529C21.781 20.343 21.632 20.2812 21.4766 20.2812H15.6172C15.4618 20.2812 15.3128 20.343 15.2029 20.4529C15.093 20.5628 15.0312 20.7118 15.0312 20.8672V28.0937H14.4453C14.2899 28.0937 14.1409 28.1555 14.031 28.2654C13.9211 28.3753 13.8594 28.5243 13.8594 28.6797V30.6328C13.8594 30.7882 13.9211 30.9373 14.031 31.0471C14.1409 31.157 14.2899 31.2187 14.4453 31.2187H22.6484C22.8038 31.2187 22.9529 31.157 23.0628 31.0471C23.1726 30.9373 23.2344 30.7882 23.2344 30.6328V28.6797C23.2344 28.5243 23.1726 28.3753 23.0628 28.2654C22.9529 28.1555 22.8038 28.0937 22.6484 28.0937ZM19.1328 21.4531H20.8906V28.0937H19.1328V21.4531ZM16.2031 21.4531H17.9609V28.0937H16.2031V21.4531ZM22.0625 30.0469H15.0312V29.2656H22.0625V30.0469ZM34.6406 20.8672C34.6406 20.7118 34.5789 20.5628 34.469 20.4529C34.3591 20.343 34.2101 20.2812 34.0547 20.2812H28.1953C28.0399 20.2812 27.8909 20.343 27.781 20.4529C27.6711 20.5628 27.6094 20.7118 27.6094 20.8672V28.0937H27.0234C26.868 28.0937 26.719 28.1555 26.6091 28.2654C26.4992 28.3753 26.4375 28.5243 26.4375 28.6797V30.6328C26.4375 30.7882 26.4992 30.9373 26.6091 31.0471C26.719 31.157 26.868 31.2187 27.0234 31.2187H35.2266C35.382 31.2187 35.531 31.157 35.6409 31.0471C35.7508 30.9373 35.8125 30.7882 35.8125 30.6328V28.6797C35.8125 28.5243 35.7508 28.3753 35.6409 28.2654C35.531 28.1555 35.382 28.0937 35.2266 28.0937H34.6406V20.8672ZM31.7109 21.4531H33.4688V28.0937H31.7109V21.4531ZM28.7812 21.4531H30.5391V28.0937H28.7812V21.4531ZM34.6406 30.0469H27.6094V29.2656H34.6406V30.0469Z" fill="#18171C"/>
</svg>
